<svg width="1261" height="383" viewBox="0 0 1261 383" fill="none" xmlns="http://www.w3.org/2000/svg">
<g clip-path="url(#clip0)">
<path d="M88.5211 69.9714C92.8231 70.9837 98.0531 74.2735 98.0531 77.4789C98.0531 83.1306 92.2327 87.6857 80.5075 86.4204C77.302 86.083 70.6381 81.6966 70.6381 80.5156C70.8068 79.3347 70.2163 77.8163 71.3129 76.8041C73.0844 74.8639 75.7837 73.4299 75.9524 72.0803C76.3742 69.5497 76.8803 68.7905 78.9891 68.7905C79.6639 68.7905 82.6163 69.2122 83.0381 69.2122C85.3157 69.4653 87.0871 69.7184 88.5211 69.9714ZM14.5429 66.766C11.1687 79.5034 17.0735 87.2639 22.7252 89.9633C37.4871 97.049 49.8027 93.0844 62.5401 87.517C63.2993 87.1796 65.3238 88.4449 68.7823 90.2163C75.2776 93.5905 79.6639 93.5905 82.7007 93.5905C100.584 93.5905 104.97 83.5524 105.645 79.9252C107.585 68.9592 99.3184 63.7293 85.9905 61.4517C82.9537 60.9456 79.4109 60.3551 75.4463 60.3551C71.1442 60.3551 70.6381 61.8735 68.3605 63.7293C66.5891 65.1633 65.2395 65.9224 64.8177 66.4286C64.3959 66.9347 64.2272 67.6095 64.2272 68.6218C64.2272 69.7184 63.8898 70.5619 63.215 71.2367C61.781 72.9238 61.1061 74.9483 61.1061 77.3946C61.1061 78.5755 60.8531 79.419 60.2626 79.9252C59.2503 81.1061 41.8735 92.1565 26.4367 82.5401C21.0381 79.166 20.532 70.7306 23.2313 66.3442C27.5333 59.0898 39.9333 54.7034 43.898 55.2095L49.5497 55.8844C51.9959 59.2585 53.3456 60.4395 56.2136 58.8367C58.7442 57.4027 59.6721 55.8 59.419 52.5946C59.166 49.5578 56.8041 47.9551 54.2735 47.1116C53.0925 46.6898 50.7306 46.4367 48.9592 46.4367C45.5007 46.4367 42.1265 47.9551 38.5837 48.2082C36.2218 48.5456 18.7605 50.9918 14.5429 66.766ZM219.739 45.5088C213.075 50.317 201.772 51.0762 197.807 50.9075C195.445 50.7388 195.277 50.6544 194.18 48.7143C192.83 46.3524 191.649 45.0027 190.637 45.0027C189.035 45.0027 188.528 48.4612 186.42 50.317C184.901 51.5823 183.805 52.5946 183.72 53.4381C183.72 54.1973 184.142 55.0408 185.154 56.0531L186.673 57.5714L186.251 62.2109C185.998 65.1633 185.66 66.8503 185.323 67.1034C184.986 67.4408 181.949 66.0912 181.274 66.0912C179.84 66.0912 176.719 68.2 176.719 69.5497C176.635 70.3088 177.478 72.5864 178.743 73.5143C180.43 74.7796 182.455 74.9483 185.07 75.2014C185.07 75.7075 184.986 77.985 184.901 79.0816C184.817 80.2626 184.732 81.1061 184.732 81.6122C184.395 86.8422 184.395 90.132 184.732 91.4816C185.407 93.9279 186.841 95.868 188.107 95.868C189.035 96.0367 192.577 93.5905 192.83 92.5782C193.421 89.9633 193.083 87.6014 193.168 84.902C193.168 83.7211 193.758 75.7075 193.758 75.7075C193.758 75.7075 194.939 75.5388 196.711 75.2014C199.579 74.6952 210.292 72.7551 213.497 72.249C217.462 71.5741 222.439 70.8993 225.644 71.1524C227.415 71.2367 228.596 71.8272 229.103 72.7551C229.693 73.7673 230.115 75.9605 230.705 79.419C231.464 84.9864 232.139 88.2762 232.645 89.5415C233.152 90.6381 234.079 91.4816 237.032 91.4816C239.478 91.4816 242.177 90.0476 241.756 88.1075C241.587 87.2639 238.044 75.5388 237.622 72.249C237.538 71.4898 236.947 66.4286 235.513 65.1633C233.911 63.7293 230.368 64.4884 228.343 64.4884C224.885 64.5728 200.254 67.3565 193.758 67.1034C193.758 63.0544 194.18 59.5959 194.518 59.0054C194.686 58.7524 195.445 58.5837 196.795 58.4993C205.905 57.6558 213.075 56.2218 215.184 55.4626C217.968 54.366 224.041 52.5946 224.379 47.6177C224.463 46.7741 224.294 46.015 224.041 45.5088C223.788 44.9184 223.282 44.581 222.607 44.4966C222.017 44.4966 221.089 44.834 219.739 45.5088ZM230.958 54.9565C230.958 56.9809 232.983 58.4993 235.345 59.0054C236.779 59.4272 237.791 59.1741 238.635 58.1619C239.141 57.5714 239.309 57.0653 239.394 56.3905C239.394 55.2095 238.803 53.9442 237.622 52.5102C236.779 51.6667 236.02 51.0762 235.429 51.0762C234.754 50.9918 233.826 51.5823 232.645 52.5946C231.549 53.5224 231.043 54.366 230.958 54.9565ZM376.412 75.4544C376.918 76.551 377.846 77.1415 379.111 77.1415C380.039 77.1415 380.967 76.8041 381.895 76.1293C382.654 75.5388 383.413 75.2857 384.172 75.2857C385.1 75.2857 386.619 75.5388 388.727 75.9605C394.717 77.0571 397.585 80.6 397.585 83.3837C397.585 84.1429 397.163 88.3605 386.113 88.1075C379.617 87.9388 374.134 85.3238 373.713 78.1537C373.544 75.4544 374.134 74.1048 375.062 74.1048C375.568 74.1048 375.99 74.5265 376.412 75.4544ZM312.64 72.9238C312.64 76.0449 314.918 79.5878 317.364 80.0095C318.63 80.2626 318.883 80.6 318.883 81.8653C318.883 84.0585 319.726 88.951 320.317 90.0476C321.076 91.4816 321.919 92.2408 322.847 92.2408C324.956 92.2408 328.668 88.1075 328.668 85.8299C328.668 84.9864 328.246 84.1429 327.402 83.3837C326.474 82.6245 326.137 82.034 326.221 81.781C326.306 81.5279 328.415 81.2748 332.379 81.0218C336.259 80.8531 339.381 80.4313 341.658 79.7565C343.092 79.2503 344.779 78.8286 345.201 79.0816C345.37 79.166 345.538 80.9374 345.623 84.3116C345.707 87.6857 346.129 93.7592 348.238 93.7592C349.25 93.7592 350.093 92.9156 350.853 91.1442C352.287 87.4327 351.696 84.649 351.696 80.6844C351.696 79.7565 352.034 78.9973 352.708 78.5755C353.468 78.1537 362.747 76.3823 364.012 76.3823C364.602 76.3823 365.024 76.551 365.277 76.8041C365.615 77.3102 365.699 78.7442 366.121 81.0218C367.049 86.3361 372.11 95.1088 381.051 96.2054C392.608 97.6395 399.609 93.7592 402.14 89.2041C403.068 87.6014 403.574 85.7456 403.574 83.7211C403.574 82.4558 403.321 81.1905 402.899 79.8408C400.959 73.7673 393.62 68.2 386.281 67.5252L378.689 66.766C377.762 66.6816 377.002 66.2599 376.243 65.332C375.484 64.2354 374.64 63.7293 373.713 63.7293C372.785 63.7293 371.772 64.2354 370.591 65.2476C361.481 69.5497 352.54 69.7184 350.853 69.7184L350.937 53.0163C351.19 42.9782 350.431 41.2068 349.84 40.6163C349.081 39.8571 348.153 39.4354 347.225 39.4354C345.791 39.4354 345.032 40.1102 344.779 41.5442C344.526 42.9782 344.442 47.7864 344.442 55.8844V70.7306C340.73 71.4054 332.295 72.249 324.281 71.6585V67.019C324.281 65.2476 324.281 63.7293 324.366 62.4639C324.534 58.1619 325.125 41.2912 322.257 39.351C322.004 39.1823 321.329 38.9292 320.907 38.9292C318.798 38.9292 318.545 41.6286 318.376 43.7374C318.208 45.7619 318.039 49.8952 318.039 56.2218V70.3932L315.762 69.8027C313.147 69.1279 312.64 70.4775 312.64 72.9238ZM536.093 42.3878H500.496C491.554 42.7252 472.996 42.1347 471.225 43.4C469.2 44.834 470.044 48.0394 472.996 49.136C474.008 49.4735 475.611 51.498 476.708 51.498C477.889 51.498 490.457 50.1483 491.638 50.1483C490.711 54.8721 490.204 59.4272 490.204 67.2721C490.204 72.249 490.373 75.8762 490.711 78.4068C491.132 80.7687 491.385 83.3837 491.47 86.083C491.723 90.8912 488.939 92.4939 495.687 93C498.049 93.1687 501.002 91.6503 501.002 88.7823C500.833 86.6735 500.411 85.4925 499.905 84.8177C499.315 84.2272 498.893 82.1184 498.64 78.3224C498.64 76.7197 497.796 69.5497 497.796 67.8626C497.796 60.7769 498.893 53.0163 499.652 50.0639C503.87 50.2326 509.859 50.2326 518.294 50.2326C517.957 53.6912 516.523 61.0299 517.366 77.6476C517.451 80.0095 517.957 82.6245 518.041 85.3238C518.294 90.132 519.222 92.4095 522.428 92.4095C525.886 92.4095 527.573 90.2163 527.573 87.9388C527.573 86.083 526.983 84.7333 526.477 84.0585C525.886 83.468 525.464 81.3592 525.296 77.5633C525.042 73.1769 523.862 54.7878 526.477 50.2326L531.538 49.9796C537.189 49.7265 541.491 47.1959 542.335 46.3524C543.432 45.3401 543.685 44.581 543.685 43.9061C543.685 42.8095 541.154 42.3878 536.093 42.3878ZM690.15 41.8816C686.355 41.8816 684.414 44.4122 684.414 49.0517C684.414 51.5823 684.92 54.1973 687.114 54.1973C687.704 54.1973 688.21 53.9442 688.632 53.3537C688.969 52.932 689.813 52.3415 691.247 51.5823C693.525 50.4857 694.284 48.9673 694.284 45.6775C694.284 42.5565 692.428 41.8816 690.15 41.8816ZM610.605 81.3592C608.496 91.1442 616.425 93.1687 619.378 93.3374C631.693 94.0122 642.153 84.4803 643.503 83.0463C644.262 82.2027 644.852 81.781 645.274 81.781C645.78 81.781 646.286 82.6245 646.708 84.3116C648.311 90.3007 651.938 93.5905 656.915 93.5905C663.495 93.5905 672.436 88.2762 675.557 82.7932C677.75 78.9129 678.763 78.1537 679.184 78.1537C679.438 78.1537 679.606 78.4068 679.606 78.9129C679.606 79.7565 679.1 84.4803 680.45 87.0952C682.137 90.3007 683.993 91.1442 685.511 91.1442C687.789 91.1442 688.463 86.2517 688.548 83.0463C688.632 76.8041 688.21 66.8503 686.608 65.2476C684.92 63.5605 683.065 62.6327 681.04 62.6327C678.341 62.6327 676.316 63.9823 675.389 66.6816C671.846 76.8041 664.929 85.0707 659.024 85.4082C654.806 85.6612 654.3 80.1782 653.963 78.8286C652.95 74.6109 652.613 68.2844 650.504 66.8503C649.745 66.3442 648.48 65.6694 646.877 63.9823C642.744 59.849 637.767 60.2707 631.44 61.7048C622.499 63.7293 612.967 70.4775 610.605 81.3592ZM619.884 86.5891C616.594 86.5891 617.944 77.732 624.523 71.8272C629.416 67.4408 635.742 68.1156 637.176 68.5374C644.852 70.6463 642.406 76.8041 634.646 81.4435C627.729 85.5769 623.764 86.5891 619.884 86.5891ZM793.902 70.3088C797.445 73.3456 790.191 81.5279 785.298 83.9741C778.719 87.3483 772.392 89.5415 773.151 82.2027C773.742 76.6354 776.947 72.249 782.093 69.5497C785.804 67.6095 787.913 68.2844 789.01 68.2844C791.962 68.1156 787.407 72.7551 793.902 70.3088ZM765.053 83.6367C765.053 86.2517 764.969 91.2286 768.427 93.6748C773.32 97.1333 782.346 94.7714 790.444 89.5415C792.721 88.0231 794.493 86.8422 796.517 83.9741C797.614 86.5048 799.217 89.0354 803.097 88.5293C805.965 88.1918 811.785 85.4082 814.231 83.8054L814.485 83.6367C814.653 86.7578 814.4 90.0476 814.231 91.3973L813.472 104.81C812.797 116.788 811.279 126.488 816.34 125.898C817.859 125.729 821.233 124.38 820.389 122.186L819.968 121.09L820.558 117.125C820.811 115.354 821.064 105.063 821.823 94.7714C825.619 94.7714 831.44 92.4095 836.754 87.8544C842.321 83.0463 845.189 77.1415 845.189 71.3211C845.189 59.7646 830.006 63.898 828.15 64.5728C826.125 65.332 823.932 66.3442 822.667 66.8503C822.751 63.5605 823.173 60.1864 822.414 59.4272C821.908 58.9211 821.402 58.0775 819.124 58.8367C818.618 59.0054 816.425 58.9211 816.003 59.9333C815.412 61.283 815.244 64.9102 815.75 69.0435C812.629 72.1646 812.882 72.8395 813.557 74.6952C813.135 76.7197 811.617 79.6721 807.652 81.3592C804.7 82.6245 804.531 80.7687 804.531 79.8408V72.7551C804.531 69.381 803.181 66.1755 803.181 66.1755C801.831 64.9102 798.12 66.8503 797.361 66.4286C796.855 66.1755 797.614 64.5728 795.505 61.6204C794.914 60.7769 792.637 59.6803 789.769 59.6803C786.985 59.6803 777.538 61.1143 771.802 67.6939C769.777 69.9714 765.053 76.1293 765.053 83.6367ZM822.583 86.8422C822.329 86.9265 822.667 75.2857 822.667 75.2857C825.619 73.3456 828.487 70.2245 834.476 71.2367C839.453 72.0803 835.826 79.5034 831.946 82.2027C828.15 84.902 824.523 86.5048 822.583 86.8422ZM932.332 69.634C940.346 65.0789 945.322 67.5252 945.829 69.1279C946.166 70.0558 943.045 71.3211 942.454 74.3578C941.948 76.9728 937.393 80.5156 934.947 82.5401C929.464 86.9265 924.065 87.7701 923.475 82.5401C923.053 78.9129 926.68 72.8395 932.332 69.634ZM915.967 84.1429C915.967 90.0476 919.342 93 924.74 93C932.754 93 939.924 85.8299 943.045 83.215C946.166 80.6 947.853 79.3347 948.191 79.3347C948.275 79.3347 948.275 79.3347 948.359 79.419C948.781 79.7565 949.287 81.5279 949.793 84.7333C950.046 86.2517 950.299 89.0354 950.89 91.0599C951.396 92.9156 953.674 93.5061 955.276 93.5061C958.903 93.5061 961.687 90.3007 962.952 86.9265C965.314 80.6 970.882 70.1401 972.569 70.0558C976.365 69.8871 975.184 76.7197 975.184 82.9619C975.184 87.1796 975.268 92.1565 979.064 92.1565C983.282 92.1565 981.426 82.034 986.318 73.8517C987.837 71.2367 990.114 67.8626 992.476 67.6095C995.513 67.3565 995.597 70.1401 997.791 68.3687C1000.07 66.3442 996.103 60.7769 993.067 60.7769C991.717 60.7769 989.018 61.1143 987.246 63.4762C984.463 66.9347 983.788 67.2721 981.257 67.2721C980.667 67.2721 979.57 66.3442 978.389 64.5728C976.449 61.6204 976.618 60.9456 973.581 60.9456C969.954 60.9456 968.014 62.3796 965.989 65.585C963.965 68.7905 958.903 82.5401 957.216 82.5401C956.035 82.5401 957.722 68.2 953.42 66.3442C950.974 64.4884 949.878 61.6204 947.516 60.7769C946.588 60.4395 941.358 58.2463 935.875 60.6082C930.561 62.3796 926.09 65.0789 922.463 68.7061C918.161 72.7551 915.967 79.0816 915.967 84.1429ZM1104.53 69.8027C1104.53 70.1401 1103.77 72.4177 1103.52 73.4299C1101.41 80.7687 1091.96 84.2272 1086.39 86.4204C1084.96 87.0109 1077.45 88.4449 1077.45 85.0707C1077.45 80.7687 1081.92 76.8884 1083.36 75.9605C1091.46 70.3932 1100.65 69.2966 1102.08 69.2966C1103.69 69.2966 1104.53 69.4653 1104.53 69.8027ZM1069.35 84.1429C1068.85 88.1918 1072.31 91.9878 1076.78 93.4218C1080.49 94.434 1086.56 94.0122 1090.78 92.0721C1098.12 88.698 1101.92 84.902 1102.17 84.902C1102.42 84.902 1103.69 92.3252 1110.1 92.3252C1111.87 92.3252 1117.1 89.7946 1120.47 87.1796C1121.57 86.2517 1122.5 85.8299 1123.09 85.8299C1126.8 85.8299 1123.68 92.6626 1132.03 92.6626C1136.5 92.6626 1140.89 90.5537 1144.85 85.6612C1145.69 84.5646 1146.12 83.8898 1146.62 83.8898C1147.04 83.8898 1147.89 84.902 1149.58 86.6735C1155.31 92.7469 1158.18 92.4939 1160.54 92.4095C1171.09 92.0721 1171.93 82.2871 1171.93 76.8041C1171.84 74.3578 1171.25 71.9116 1169.99 69.381C1167.88 64.9102 1162.48 58.7524 1159.19 62.0422C1158.6 62.6327 1158.43 63.1388 1158.35 63.7293C1158.09 65.2476 1161.81 66.6816 1162.99 69.0435C1167.21 77.3946 1165.77 83.2993 1163.07 84.1429C1159.19 85.3238 1156.15 83.0463 1153.29 78.1537C1151.6 75.2014 1150.33 72.7551 1146.71 72.7551C1144.77 72.7551 1143.33 73.683 1143.33 75.117C1143.33 77.5633 1139.79 85.2395 1134.56 85.2395C1129.84 85.2395 1129.41 74.9483 1130.6 71.1524C1132.03 66.4286 1132.87 63.3075 1128.57 64.0667C1125.37 64.6571 1123.68 67.8626 1122.16 71.8272C1120.89 75.2014 1120.98 80.2626 1118.53 82.2871C1115.92 84.4803 1113.89 85.5769 1112.29 85.5769C1110.27 85.5769 1110.1 83.1306 1110.18 80.4313C1110.35 75.9605 1111.19 73.5986 1111.45 72.8395C1111.7 72.0803 1112.12 71.4898 1112.71 71.2367C1114.4 70.3932 1115.24 69.1279 1115.24 67.3565C1115.24 65.5007 1113.47 64.5728 1111.95 63.8136C1108.49 62.0422 1100.99 62.8014 1097.28 63.8136C1084.12 67.6095 1070.54 74.4422 1069.35 84.1429ZM72.1565 164.412C71.3973 165.171 71.2286 166.099 71.6503 167.533C72.0721 168.799 73.1687 170.148 74.7714 171.582C76.3742 172.932 77.6395 173.101 78.5674 173.776C79.2422 174.282 79.7483 174.535 80.1701 174.535C81.2667 174.535 81.098 172.173 81.0136 171.414C80.5918 168.377 78.8204 164.497 77.2177 163.737C76.5429 163.4 75.868 163.231 75.1089 163.231C73.9279 163.231 73.0844 163.484 72.1565 164.412ZM13.5306 197.816C13.5306 205.493 18.7605 212.663 27.449 212.831C36.6435 213 42.8857 211.482 59.0816 202.118C61.6966 200.6 64.5646 198.154 65.4925 198.154C65.9143 198.154 66.1674 198.491 66.4204 199.335C66.5891 200.178 66.9265 202.371 67.4327 205.999C68.3605 212.663 70.5537 214.518 74.0966 214.012C77.6395 213.506 77.7238 209.71 76.7959 206.758L74.7714 200.01C74.6871 197.985 74.0123 195.117 72.7469 191.405C71.7347 188.369 69.7102 185.838 68.1075 185.416C68.0231 185.416 68.0231 185.332 67.9388 185.332H67.6857C65.7456 185.332 62.6245 187.61 61.2748 189.465C56.6354 195.707 54.864 197.479 40.7769 203.299C23.7374 209.963 22.3034 200.094 22.3034 197.985C22.3034 193.599 24.834 190.224 29.8109 187.694C34.2816 185.416 40.4395 186.091 41.7891 186.85C42.3796 187.188 42.717 187.272 42.8857 187.272C43.6449 187.272 45.6694 185.669 45.6694 182.886C45.6694 181.705 45.2476 181.03 44.0667 180.355C43.4762 180.018 42.3796 179.512 41.5361 179.512C40.8612 179.512 40.3551 179.259 39.9333 178.752C39.5959 178.246 38.9211 178.078 37.8245 178.078C37.1497 178.078 35.2939 178.162 32.1728 178.499C23.1469 179.343 13.5306 185.838 13.5306 197.816ZM184.767 191.743C192.106 187.778 200.372 188.453 201.553 199.082C194.046 205.914 187.635 207.18 183.754 207.348C180.043 207.517 177.006 204.902 177.006 201.528C177.006 198.491 180.38 194.105 184.767 191.743ZM119.224 199.925C117.537 210.554 126.9 213.169 135.588 211.735C140.65 210.891 145.374 209.626 149.254 208.107C149.844 210.132 151.278 211.735 152.881 211.819C156.593 211.988 163.678 209.626 169.667 204.227C169.667 209.795 174.391 214.434 180.38 214.434C187.635 214.434 194.046 213 202.65 206.589C204.084 209.626 207.289 215.278 211.507 215.278C220.617 215.278 228.209 204.48 228.209 201.697C228.209 198.66 225.594 197.985 224.076 197.985C223.148 197.985 223.063 198.829 222.051 200.347C218.593 205.746 215.472 207.095 214.881 207.095C212.182 207.095 211.591 204.818 210.916 201.444C215.725 198.576 215.809 197.226 215.556 195.454C215.218 193.093 213.869 191.659 210.242 189.212C210.242 183.307 212.35 172.088 211.591 169.727C211.085 168.039 210.242 166.943 207.964 166.774C206.53 166.69 205.012 166.774 204.337 169.305C203.156 173.86 202.312 181.367 202.818 185.585C198.263 183.392 193.118 183.392 192.274 183.392C183.333 183.223 173.548 188.369 170.174 195.454C169.414 197.057 167.98 199.082 163.425 200.853C159.967 202.203 157.774 202.624 157.774 201.528C157.774 200.6 159.208 197.816 160.473 196.804C161.063 196.382 162.497 193.514 162.497 191.743C162.497 189.634 159.292 186.682 157.183 185.838C157.605 182.042 158.533 176.222 159.967 171.835C160.473 170.233 157.858 168.039 156.002 168.039C154.146 168.039 152.965 168.714 152.375 170.064C151.447 171.92 149.591 178.921 149.001 183.054C147.061 182.548 145.289 182.127 141.662 182.548C127.069 184.235 120.152 194.105 119.224 199.925ZM126.9 199.082C128.84 192.586 137.782 189.212 143.012 189.381C149.929 189.634 148.579 198.913 148.495 201.528C146.47 202.878 141.831 203.89 138.71 204.818C132.805 206.589 124.876 205.746 126.9 199.082ZM363.404 189.634L363.066 193.599C362.897 195.623 363.657 197.563 362.138 198.913C360.873 200.178 356.571 202.709 354.799 202.709C354.209 202.709 352.606 202.287 352.185 201.781C351.172 200.431 348.22 201.275 346.027 201.612C344.34 202.034 343.58 201.781 344.171 200.431C344.34 200.01 344.677 198.744 346.111 197.141C351.425 191.405 358.595 189.803 363.404 189.634ZM292.293 200.431C292.293 208.614 300.813 213 310.345 212.831C320.299 212.663 326.288 210.807 334.723 209.626C338.857 209.035 339.11 211.903 344.593 211.903C352.438 211.903 360.451 208.614 364.753 204.818C365.934 210.638 370.321 214.603 375.719 214.434C378.25 214.35 382.13 210.722 382.13 208.192C382.13 206.673 380.78 204.312 378.587 204.312C377.912 204.312 375.551 205.155 375.129 204.818C371.755 202.287 370.489 192.924 372.008 176.39C373.189 163.231 373.273 162.135 370.574 160.869C368.971 160.195 367.368 159.52 366.609 160.448C365.934 161.122 365.512 166.184 364.838 166.858C364.416 167.28 363.235 177.824 363.404 183.139C362.729 182.97 360.873 182.633 359.102 182.801C350.582 183.645 337.254 190.056 335.651 202.287C335.567 202.793 325.613 205.83 315.744 206.589C301.151 207.77 300.391 201.781 300.391 198.407C300.391 197.816 301.404 198.154 301.994 198.238C306.634 199.166 313.382 195.707 317.853 193.683C320.552 192.502 326.878 188.706 326.878 185.754C326.878 181.114 322.492 179.343 318.527 179.343C313.382 179.343 307.561 180.355 302.247 183.814C295.33 188.284 292.293 193.683 292.293 200.431ZM304.272 191.321C304.862 190.815 306.38 189.971 308.911 188.959C311.61 187.863 313.635 187.272 315.069 187.272C315.744 187.272 316.081 187.441 316.081 187.778C316.081 188.706 306.802 191.996 304.778 191.996C303.765 192.165 303.597 191.912 304.272 191.321ZM511.132 163.316C510.373 163.737 509.361 164.581 509.361 165.846C509.361 169.642 511.554 172.004 516.025 173.101C517.965 173.522 520.58 173.944 521.001 172.088C521.339 170.739 519.061 169.642 519.061 168.039C519.061 167.365 519.314 165.424 518.724 164.75C517.459 163.484 513.831 162.219 511.132 163.316ZM452.928 197.226C452.928 208.782 461.616 214.097 474.523 213.422C482.452 213 496.708 209.71 503.456 194.358C504.131 193.683 504.89 195.539 505.059 198.154C505.396 203.552 506.493 207.517 508.348 209.879C510.373 212.41 511.976 212.578 514.422 209.795C515.94 208.192 516.699 206.927 516.699 205.914C516.699 205.155 516.362 204.48 515.603 203.805C513.831 202.203 512.229 196.72 511.976 192.333C511.891 189.297 510.963 182.886 510.373 182.042C510.035 181.199 509.192 181.283 508.601 180.355C507.842 178.837 506.83 179.259 505.143 180.186C501.6 182.042 499.997 192.755 492.49 199.419C484.392 206.673 477.981 207.939 471.57 207.517C463.135 206.927 460.857 200.178 461.616 196.72C464.063 196.467 470.22 195.37 473.679 194.105C486.754 189.297 490.381 186.682 490.381 185.669C490.381 180.018 482.452 179.427 476.884 179.427C466.34 179.427 452.928 187.525 452.928 197.226ZM462.713 191.405C465.328 188.453 468.786 187.019 472.667 185.838C477.137 184.488 481.271 184.741 481.271 185.079C481.271 185.501 477.391 187.188 471.908 188.79C469.377 189.465 465.244 190.984 462.713 191.405ZM610.963 189.297C615.35 187.694 619.736 186.344 620.833 187.272C620.074 188.959 617.29 189.887 613.916 191.49C609.023 193.852 601.769 195.623 601.769 195.37C601.769 195.117 607.083 190.731 610.963 189.297ZM591.815 201.95C591.646 206.252 592.068 213.844 602.781 214.181C621.255 214.771 632.474 205.155 636.101 201.19C636.101 202.203 635.51 208.445 637.197 210.469C638.294 211.735 639.644 212.241 641.078 212.241C642.259 212.241 643.608 211.819 645.211 211.06C648.501 209.457 653.056 204.227 657.948 198.576C659.72 196.467 661.238 194.78 661.744 194.78C662.166 194.78 662.925 198.66 663.347 200.01C665.962 207.686 667.733 209.541 671.698 209.541C674.566 209.541 675.663 208.698 679.374 203.468L678.362 201.444C677.603 200.01 676.759 199.25 675.831 199.166C674.482 199.082 673.216 200.516 671.698 197.057C670.686 194.695 668.493 187.272 666.721 185.163C665.709 183.898 664.528 183.814 663.01 183.814C661.07 183.814 657.948 186.26 656.177 188.622C652.297 193.683 646.729 201.19 644.199 201.612H644.114C643.693 201.528 643.44 198.829 643.271 193.683C643.187 190.056 642.68 185.163 642.259 183.898C641.668 182.295 639.728 181.452 639.053 181.452C637.788 181.452 636.101 183.223 635.679 184.995C635.679 185.501 634.751 188.622 632.305 192.418C627.75 199.503 617.29 208.276 605.312 207.854C600.757 207.686 598.816 205.155 600.082 200.937C603.203 201.612 613.41 198.744 620.833 194.358C628.678 189.718 628.172 187.778 627.412 183.898C626.738 180.439 619.061 177.993 609.529 182.295C599.238 186.935 592.153 193.093 591.815 201.95ZM813.445 190.393C819.265 189.971 822.386 191.827 822.386 194.611C822.386 197.985 817.662 202.962 813.782 204.902C811.336 206.083 805.768 208.445 803.407 208.782C803.491 203.805 803.66 199.503 803.744 194.527C806.275 191.743 810.661 190.562 813.445 190.393ZM740.9 193.767C740.9 194.527 741.407 195.37 742.334 196.298C743.347 197.31 745.118 198.407 748.492 198.069C749.842 208.361 759.037 213 764.688 213C766.544 213 786.03 214.181 794.887 197.141C794.296 207.264 794.296 225.316 794.296 235.016C794.296 239.318 794.549 245.139 797.586 245.139H798.936C804.166 245.139 803.154 237.716 803.322 230.377C803.491 223.376 803.322 218.146 803.322 215.868C805.937 215.446 812.095 214.097 817.915 210.891C825.929 206.505 831.412 199.082 831.412 193.936C831.412 186.513 824.832 182.886 818.168 182.295C813.192 181.873 808.637 182.295 803.913 184.404L803.744 181.114C803.744 180.018 803.322 179.09 802.479 178.331C801.635 177.403 800.201 176.981 798.261 176.981C795.646 176.981 795.477 177.15 794.887 178.415C794.634 178.921 794.718 181.114 794.718 183.054C794.718 193.852 778.775 207.433 767.556 206.252C761.23 205.577 758.277 201.022 757.856 197.648C773.124 196.888 782.318 191.912 783.583 189.971C784.764 188.79 784.005 187.188 783.499 186.26C782.065 183.139 777.257 180.861 769.328 180.861C763.423 180.861 753.807 181.958 749.589 189.971C747.902 189.971 746.552 189.803 745.54 189.803C744.612 189.803 743.684 190.224 742.588 191.152C741.491 192.165 740.9 193.008 740.9 193.767ZM758.699 190.646C759.037 189.55 763.76 187.947 766.544 187.525C770.256 186.935 773.124 187.778 773.798 187.947C773.883 188.031 773.883 188.031 773.883 188.116C771.268 189.803 763.254 190.984 758.699 190.646ZM927.348 184.488C931.059 183.476 934.771 184.995 934.012 185.922C933.168 186.935 928.782 189.212 926.167 190.14C921.865 191.743 915.37 192.418 915.37 192.165C915.538 190.646 921.106 186.176 927.348 184.488ZM902.295 200.347C901.283 209.71 910.815 213.506 921.106 213C931.397 212.578 941.182 209.035 949.449 198.829C950.63 207.348 953.751 212.494 955.269 213.422C956.45 214.097 957.462 214.518 958.306 214.518C961.596 214.518 964.21 204.902 965.982 199.756C968.934 191.152 973.405 188.453 975.345 188.453C978.972 188.453 983.19 191.912 985.215 191.743C986.902 191.574 986.396 190.224 986.142 189.128C985.721 187.441 985.046 183.814 979.479 181.536C977.876 180.861 976.104 180.271 972.73 180.608C962.608 181.705 959.571 191.152 958.812 200.094C958.474 200.094 957.631 192.839 957.462 187.694C957.378 183.982 958.306 180.355 954.088 180.608C951.473 180.777 948.436 182.38 947.762 186.26C945.821 197.226 937.386 201.781 930.385 204.902C921.865 208.023 908.959 207.854 911.742 198.829C914.864 198.829 921.527 198.154 925.914 196.72C933.927 194.105 940.423 190.478 940.423 184.151C940.423 179.427 933.253 177.571 929.879 177.571C924.396 177.571 917.816 179.596 909.887 187.694C906.766 190.899 903.138 195.876 902.295 200.347ZM1069.9 156.483C1062.56 159.435 1059.86 177.15 1059.86 186.513C1059.86 188.369 1056.82 188.116 1057.16 191.49C1057.5 194.527 1059.27 194.273 1060.28 195.539L1060.96 199.672C1061.97 205.999 1061.55 211.397 1063.49 212.663C1063.91 212.916 1064.5 213.084 1065.17 213.084C1069.48 213.084 1072.09 210.891 1070.74 206.673C1069.48 202.793 1068.55 196.129 1068.55 193.936L1072.94 193.346C1075.04 193.093 1080.19 192.502 1083.14 192.586L1082.89 199.588C1083.06 205.999 1083.14 209.71 1083.31 210.638C1083.73 213.422 1086.09 214.434 1088.12 214.434C1089.97 214.434 1092.42 212.831 1092.42 209.12C1092.42 207.433 1091.32 201.865 1091.75 192.08C1104.31 190.393 1106.17 188.959 1106.59 186.935C1106.85 185.585 1104.65 184.404 1102.04 184.32C1099.08 184.235 1093.69 184.32 1093.1 184.32C1093.77 176.559 1096.39 168.377 1097.57 167.112C1100.1 164.328 1101.7 165.762 1103.39 166.774C1105.07 167.786 1107.1 165.762 1107.1 163.822C1107.1 161.207 1106 157.748 1102.12 157.411C1099.51 157.158 1095.88 157.833 1093.52 159.351C1087.87 162.894 1084.66 174.872 1083.65 184.995C1079.35 185.332 1071.08 186.26 1068.55 186.429C1068.3 176.39 1068.97 168.714 1071.33 165.762C1072.68 163.822 1074.37 163.147 1075.72 163.484C1076.98 163.822 1077.32 165.509 1077.32 168.377C1077.32 170.57 1077.83 171.667 1078.76 171.667C1079.85 171.667 1080.86 170.401 1082.13 168.039C1083.14 166.184 1083.48 163.063 1082.55 160.616C1080.7 155.639 1074.28 154.88 1069.9 156.483ZM1195.98 161.376C1191 163.906 1187.29 168.124 1184.84 173.86C1183.58 176.812 1183.24 183.898 1182.9 185.754C1182.65 187.356 1178.52 186.682 1178.01 188.79C1177.59 190.731 1178.26 195.033 1180.03 195.033C1180.88 195.033 1182.06 195.37 1182.23 196.129C1182.65 197.732 1183.07 210.132 1183.83 212.241C1184.25 213.506 1185.01 214.181 1186.11 214.097C1189.82 213.675 1190.66 210.891 1190.66 206.842C1190.66 205.83 1190.58 202.371 1190.41 200.01L1189.82 193.093C1192.27 192.249 1195.81 191.068 1199.1 190.899C1200.36 190.899 1201.88 191.912 1202.98 193.514C1205.42 197.057 1207.62 202.878 1207.62 209.963C1207.62 212.41 1211.58 213.253 1213.35 213.253C1215.97 213.253 1215.97 210.807 1216.14 208.192C1216.56 203.299 1220.44 189.718 1225.08 191.912C1227.19 192.924 1229.63 192.08 1229.63 190.309C1229.63 189.212 1228.03 185.754 1224.91 185.163C1223.14 184.826 1220.52 185.079 1217.15 188.284C1215.13 189.887 1213.52 193.346 1212.76 194.948C1210.82 187.694 1208.55 185.332 1207.53 184.826C1206.1 184.151 1204.24 183.729 1201.97 183.729C1198.42 183.729 1192.27 185.079 1190.24 185.416L1190.41 182.886C1191.17 171.582 1197.07 166.015 1201.46 166.015C1202.13 166.015 1202.39 166.521 1202.47 167.449C1202.64 169.558 1201.38 169.389 1201.38 170.233C1201.38 170.907 1201.88 171.161 1202.98 171.161C1205.93 171.161 1209.73 168.208 1209.73 165.931C1209.73 162.725 1205.59 160.195 1200.95 160.195C1199.01 160.195 1197.41 160.616 1195.98 161.376ZM16.7361 280.882C13.1088 286.027 12.3497 321.456 15.6395 328.204C18.7605 334.531 25.5088 333.518 31.9197 329.048C39.2585 323.902 40.7769 317.491 41.6204 317.491C43.8136 317.491 43.7293 328.204 47.6095 329.891C49.2966 331.072 51.2367 330.819 52.1646 330.482C55.9606 329.132 59.2503 326.433 59.2503 322.552C59.2503 321.54 58.7442 321.118 57.732 321.118C56.7197 321.118 55.0327 321.624 54.0204 321.624C49.8871 321.54 49.2122 305.091 46.3442 302.982C45.7537 302.561 44.5728 301.633 42.9701 302.982C41.1986 304.416 37.9932 311.249 35.0408 314.961C33.0163 317.491 27.702 322.805 23.7374 322.805C22.8939 322.805 22.3034 322.046 22.0503 320.612C21.7129 319.094 20.8694 305.85 21.966 292.354C22.219 289.57 22.3034 281.894 19.6041 280.713C18.9293 280.46 18.3388 280.291 17.4952 280.46C17.0735 280.544 16.9048 280.629 16.7361 280.882ZM47.0191 287.546C46.6816 289.148 47.2721 290.161 48.3687 291.595C50.3088 293.703 51.3211 293.872 53.9361 292.776C56.298 291.51 57.985 289.317 57.985 287.63C57.985 284.931 48.2 280.882 47.0191 287.546ZM98.0069 286.449C96.1511 286.449 95.1389 288.642 94.7171 291.004C91.9335 306.272 92.8613 322.637 93.2831 324.83C94.1267 329.132 96.6573 331.747 101.044 331.747C105.093 331.747 109.479 329.385 112.853 325.167C115.553 321.793 115.806 317.069 115.806 317.322C116.143 321.287 119.433 329.722 123.904 330.735C129.64 332 134.11 330.735 137.822 324.746C137.906 337.061 137.4 353.004 123.06 355.113C115.468 356.21 107.117 352.667 102.056 347.943C100.875 346.762 99.1035 346.593 98.0913 347.774C97.5852 348.365 97.7539 349.208 98.0913 349.714C103.406 358.065 113.528 360.596 119.433 361.186C127.615 362.03 133.689 360.005 138.75 354.691C145.498 347.521 145.92 335.712 145.92 329.132C145.92 319.431 145.245 306.863 143.895 303.995C143.221 302.645 142.377 301.886 140.943 301.886C139.087 301.886 137.991 303.488 137.653 306.525C137.653 316.226 130.905 321.962 127.699 321.962C124.663 321.962 123.482 313.864 123.482 311.502C123.482 302.054 121.036 301.97 118.927 301.97C116.818 301.97 115.468 305.513 113.022 309.984C110.407 314.707 106.189 323.48 103.406 323.48C102.815 323.48 102.309 323.312 101.887 322.89C100.959 322.046 100.369 315.045 101.212 305.597C102.225 294.631 102.899 289.907 101.128 287.967C100.2 286.955 99.5253 286.449 98.0069 286.449ZM286.514 311.839C286.008 315.973 284.068 319.853 278.754 322.468C275.295 324.155 272.934 324.83 269.897 324.83C267.451 324.83 266.691 322.974 266.691 321.118C266.691 318.25 272.174 314.37 275.127 313.105C278.67 311.586 282.634 311.08 286.514 311.839ZM216.838 324.239C217.007 326.939 217.682 330.988 220.128 331.663C222.321 332.253 224.261 330.566 225.527 329.301C230.841 323.986 234.3 320.528 240.289 315.888C243.663 313.273 244.675 313.948 244.759 313.948C245.603 313.948 246.025 315.551 246.025 318.841C246.025 323.396 245.94 330.988 251.086 332.169C253.026 332.59 255.388 332.253 257.412 330.313L259.521 328.288L260.871 329.301C269.981 336.133 278.754 332.253 286.346 325.252L285.84 333.518C285.418 340.267 282.128 351.317 274.199 352.498C267.957 353.426 265.932 349.124 263.739 349.124C262.895 349.124 262.136 349.63 262.136 351.233C262.136 355.956 269.053 359.584 274.283 359.584C287.274 359.584 294.106 343.135 294.106 328.288C294.106 320.697 294.866 314.033 296.384 312.767C297.987 311.418 298.746 310.996 298.746 308.634C298.746 305.597 296.131 304.838 294.444 304.332C290.985 303.32 281.369 301.97 274.199 305.597C264.498 310.49 261.377 314.454 259.184 319.937C258.256 322.384 258.003 323.227 256.569 323.227C254.966 323.227 254.123 321.456 254.123 318.082C254.123 311.08 253.363 304.332 246.193 304.838C242.904 305.091 236.155 308.887 229.997 314.539C227.383 316.901 226.033 318.082 225.78 318.082C225.189 318.082 224.936 317.407 224.936 316.057C224.936 315.214 225.105 313.105 225.358 309.646C225.611 306.356 225.78 304.332 225.78 303.657C225.78 301.717 224.852 300.03 222.912 300.03C221.984 300.03 221.14 300.367 220.381 301.211C217.007 304.585 216.585 320.19 216.838 324.239ZM442.782 281.978C439.07 281.978 438.48 284.003 437.889 285.69C437.214 287.63 436.877 291.848 442.782 291.848C446.578 291.848 446.662 287.967 446.662 284.171C446.662 282.484 445.144 281.978 442.782 281.978ZM369.563 315.72C369.816 322.468 371.334 332.759 378.082 332.759C383.312 332.759 385.253 328.71 387.783 324.493C392.17 317.238 394.953 314.539 396.05 314.539H396.219C396.725 314.707 397.062 315.298 397.231 316.141C398.749 323.227 399.002 332.506 406.594 332.506C414.186 332.506 419.922 324.239 427.598 317.576C430.55 315.045 432.069 314.876 432.406 314.876C433.081 314.876 433.672 318.419 433.672 326.517C433.672 330.06 434.431 332.169 438.142 332.169C442.023 332.169 442.36 321.709 442.36 317.829C442.36 311.249 442.782 302.982 436.708 302.814C434.093 302.729 430.719 304.754 424.477 311.249C418.657 317.238 411.571 323.227 409.209 323.227C406.931 323.227 406.004 317.913 405.244 309.984C404.991 307.2 404.57 305.26 403.979 304.163C403.389 303.151 402.376 302.561 401.111 302.392H400.689C400.436 302.392 400.352 302.307 400.267 302.307C399.171 302.307 397.653 303.151 395.881 304.754C394.11 306.356 389.892 310.49 383.397 318.925C381.878 320.95 380.613 321.709 380.276 321.709C380.023 321.709 379.348 321.203 378.926 319.769C378.082 316.563 378.42 312.936 378.504 309.646C378.673 304.501 379.854 300.452 374.708 300.452C373.359 300.452 372.431 300.705 371.925 301.127C370.828 301.97 369.31 309.646 369.563 315.72ZM518.188 297.921C517.682 298.427 517.429 299.524 517.429 301.38C517.429 301.717 518.863 314.286 518.863 322.637C518.863 324.999 518.357 328.541 519.538 330.735C520.466 332.422 522.068 333.097 522.743 333.097C523.84 333.097 524.852 332.506 526.455 331.156C528.732 329.385 528.901 328.963 529.238 325.505C529.829 319.178 530.419 317.66 533.034 313.273C535.143 309.731 537.083 307.959 538.855 307.959C540.626 307.959 541.47 308.634 541.638 308.634C542.145 308.634 542.904 308.212 543.832 307.2C544.928 306.188 545.434 305.26 545.434 304.585C545.434 304.248 545.266 303.741 545.013 302.982C544.76 302.223 544.253 301.801 543.579 301.801C542.988 301.801 542.06 301.548 540.795 300.873C539.698 300.367 538.77 300.283 536.662 301.042C533.962 301.97 529.238 305.091 526.117 309.478C525.611 302.729 524.768 300.452 524.177 299.186C523.418 297.499 522.068 297.246 520.466 297.246C519.369 297.246 518.61 297.499 518.188 297.921ZM549.574 297.921C549.067 298.427 548.814 299.524 548.814 301.38C548.814 301.717 550.248 314.286 550.248 322.637C550.248 324.999 549.742 328.541 550.923 330.735C551.851 332.422 553.454 333.097 554.129 333.097C555.225 333.097 556.238 332.506 557.84 331.156C560.118 329.385 560.287 328.963 560.624 325.505C561.214 319.178 561.805 317.66 564.42 313.273C566.529 309.731 568.469 307.959 570.24 307.959C572.012 307.959 572.855 308.634 573.024 308.634C573.53 308.634 574.289 308.212 575.217 307.2C576.314 306.188 576.82 305.26 576.82 304.585C576.82 304.248 576.651 303.741 576.398 302.982C576.145 302.223 575.639 301.801 574.964 301.801C574.374 301.801 573.446 301.548 572.18 300.873C571.084 300.367 570.156 300.283 568.047 301.042C565.348 301.97 560.624 305.091 557.503 309.478C556.997 302.729 556.153 300.452 555.563 299.186C554.804 297.499 553.454 297.246 551.851 297.246C550.755 297.246 549.995 297.499 549.574 297.921ZM705.743 311.924C705.322 313.273 703.803 316.395 701.02 319.263C697.055 323.227 693.765 324.239 689.716 324.071C685.414 323.059 687.017 317.154 690.138 313.695C693.343 310.152 696.043 307.284 699.417 307.284C702.116 307.284 703.213 310.574 704.9 309.646C705.406 309.393 705.743 308.887 705.912 308.803C706.418 308.55 706.418 309.984 705.743 311.924ZM645.937 305.091C645.937 307.116 646.19 308.718 648.805 309.224L651.251 309.731C651.251 323.227 653.528 335.037 666.181 333.687C671.074 333.181 674.279 330.735 678.75 327.192C679.172 329.891 684.149 332.759 690.391 332C701.273 330.735 703.466 323.902 705.912 323.902C708.78 323.902 707.937 331.241 717.3 331.241C721.18 331.241 724.554 328.626 725.904 324.071C726.241 322.89 725.313 321.878 724.554 322.299C723.036 323.143 723.626 325.505 717.806 325.505C713.926 325.505 712.829 320.865 712.323 317.913C711.395 312.43 712.07 309.14 711.901 307.875C711.732 306.778 710.214 305.85 708.864 306.61C708.443 306.863 707.937 307.369 707.262 307.875C705.912 308.634 705.912 306.441 705.912 305.513C705.912 304.163 705.237 303.657 703.803 302.729C702.369 301.801 700.26 301.211 697.983 301.211C686.258 301.211 681.196 316.985 674.786 322.299C671.243 325.252 664.41 330.06 660.277 323.312C659.518 322.131 658.168 317.744 658.505 309.309C665.507 308.297 673.942 306.947 675.545 306.525C678.244 305.85 679.509 305.597 680.353 304.754C681.028 304.079 680.606 303.151 680.1 302.645C677.738 300.283 667.109 300.789 658.505 301.211C658.505 294.041 657.915 289.233 656.396 287.883C655.215 286.871 653.275 287.967 652.938 288.22C651.42 289.401 650.998 290.582 650.998 292.522C650.998 293.366 650.913 298.765 650.998 301.801L648.298 302.307C647.033 302.561 645.937 303.995 645.937 305.091ZM798.89 283.918C797.456 286.702 796.444 297.078 795.432 302.814L794.757 306.61L792.817 306.272C791.13 306.019 789.19 305.85 789.19 307.79C789.19 309.562 789.19 313.02 792.226 314.117L794.588 314.961L794.504 322.89C794.504 324.914 794.673 328.373 795.685 330.229C796.275 331.325 797.372 331.578 797.962 331.578C798.722 331.578 799.818 331.241 800.746 330.06C803.024 327.192 802.011 324.155 802.011 320.865L802.349 315.635C806.988 315.635 814.243 314.117 818.207 311.839L817.701 325.167C817.533 330.566 822.256 332.675 823.859 332.675C827.824 332.675 830.27 331.156 832.632 327.276C836.428 321.034 843.682 314.961 846.297 314.961C849.924 314.961 850.262 325.758 850.262 326.939C850.262 330.144 852.539 331.663 855.576 331.831C858.191 332 860.047 330.144 860.047 328.204C860.047 326.433 858.782 317.491 855.576 310.827C854.142 307.875 849.165 305.429 843.851 306.863C838.284 308.381 830.776 314.792 826.896 320.19C826.39 320.19 826.137 315.551 826.137 308.887L826.896 294.21C827.065 290.161 827.318 283.159 823.269 283.159C821.835 283.159 821.075 283.159 820.316 284.931C819.557 286.702 818.629 305.176 818.629 305.429C814.158 306.694 806.82 306.947 803.445 306.694C804.12 303.067 805.386 296.15 806.229 289.148C806.988 283.159 800.493 282.99 798.89 283.918ZM981.321 285.521C980.393 286.28 979.971 286.955 979.971 287.714C979.971 288.811 980.731 289.739 982.249 290.667C984.358 292.101 986.214 292.776 987.985 292.776C989.757 292.776 990.684 292.101 990.684 290.835C990.684 289.486 988.238 286.533 986.129 285.437C983.936 284.424 983.261 284.003 981.321 285.521ZM930.878 305.344C930.878 306.947 931.468 308.634 933.071 309.393C934.167 309.984 940.325 311.08 945.808 311.08C946.23 316.563 946.399 327.614 946.82 330.229C947.074 332 948.001 333.518 949.773 333.518C950.785 333.518 951.797 333.181 952.81 332.169C954.665 330.313 954.328 328.12 954.328 325.589C954.328 319.516 953.991 315.214 953.991 311.586C955.425 311.418 960.654 311.165 966.137 310.321C969.343 309.815 972.211 308.887 972.801 308.887C973.392 308.887 973.898 308.971 974.151 309.14C974.742 309.478 975.248 311.249 975.585 314.539C976.513 324.661 977.778 332.084 982.08 332.084C984.358 332.084 985.961 331.072 986.888 329.048C987.985 327.023 987.395 325.842 985.792 324.239C984.948 323.396 984.358 321.624 982.502 309.14C981.574 303.573 979.887 301.211 977.525 300.789C974.742 300.283 961.92 303.995 953.653 303.995C953.653 300.452 953.063 289.992 952.978 289.148C952.557 287.124 951.038 286.533 950.026 286.533C948.845 286.533 948.339 286.955 947.58 287.714C944.88 290.161 945.724 299.018 945.555 303.826C942.265 303.826 938.976 303.404 936.276 302.729C935.011 302.392 934.167 302.223 933.746 302.223C932.733 302.223 930.878 303.235 930.878 305.344ZM1142 282.484C1139.47 284.003 1138.97 287.461 1141.41 290.498C1143.44 292.86 1145.38 293.619 1148.16 292.185C1151.62 290.582 1150.69 288.558 1149.26 287.293C1147.74 285.943 1147.06 283.497 1146.14 282.569C1145.8 282.231 1145.12 281.978 1144.36 281.978C1143.27 281.978 1142.51 282.147 1142 282.484ZM1062.46 312.852C1061.28 318.503 1060.1 325.758 1065.32 330.144C1067.1 331.831 1068.87 332.59 1070.64 332.59C1075.19 332.59 1077.64 330.397 1080.09 326.517C1082.03 323.396 1082.62 322.215 1082.95 322.215C1083.21 322.215 1084.14 324.239 1086.41 326.095C1091.81 330.397 1097.8 332.253 1103.87 332.337C1108.51 332.337 1114.42 330.566 1117.71 326.854C1120.58 323.565 1122.1 316.31 1118.97 311.839C1125.55 313.442 1131.88 312.599 1133.82 312.599C1134.41 312.599 1134.83 312.936 1135 313.442C1135.93 315.129 1136.27 323.733 1136.69 327.614C1136.94 330.144 1138.21 332.337 1142 332.844C1144.2 333.097 1146.56 332.337 1146.56 330.735C1146.56 328.204 1142.51 306.778 1142.09 305.513C1141.33 303.067 1139.39 301.295 1136.6 302.898C1133.06 305.007 1131.54 305.766 1123.11 305.429C1118.38 305.26 1114 303.235 1111.8 303.235C1109.02 303.235 1107.59 304.416 1107.59 306.694C1107.59 310.405 1112.14 310.659 1112.65 317.744C1112.9 321.203 1110.62 324.239 1104.47 324.577C1095.86 324.999 1091.14 320.697 1086.58 313.527C1084.81 310.659 1084.64 308.465 1082.2 308.55C1080.09 308.634 1079.33 310.321 1078.15 314.623C1077.13 318.25 1075.78 325.336 1071.74 325.336C1069.8 325.336 1068.7 323.565 1068.7 321.203C1068.7 318.756 1069.63 314.623 1070.47 310.827C1071.23 307.284 1071.31 305.682 1070.39 304.754C1069.29 303.657 1067.52 303.573 1066.59 304.079C1064.14 305.513 1063.22 309.14 1062.46 312.852Z" fill="#171B36"/>
</g>
<defs>
<clipPath id="clip0">
<rect width="1261" height="383" fill="white"/>
</clipPath>
</defs>
</svg>
